<svg xmlns="http://www.w3.org/2000/svg" width="34.286" height="24" viewBox="0 0 34.286 24">
  <defs>
    <style>
      .cls-1 {
        fill: #fff;
      }
    </style>
  </defs>
  <path id="FontAwsome_users_" data-name="FontAwsome (users)" class="cls-1" d="M5.143,42.286a3.429,3.429,0,1,0-3.429-3.429A3.432,3.432,0,0,0,5.143,42.286Zm24,0a3.429,3.429,0,1,0-3.429-3.429A3.432,3.432,0,0,0,29.143,42.286ZM30.857,44H27.429a3.418,3.418,0,0,0-2.416,1,7.836,7.836,0,0,1,4.023,5.861h3.536a1.712,1.712,0,0,0,1.714-1.714V47.429A3.432,3.432,0,0,0,30.857,44ZM17.143,44a6,6,0,1,0-6-6A6,6,0,0,0,17.143,44Zm4.114,1.714h-.445a8.284,8.284,0,0,1-7.339,0h-.445a6.173,6.173,0,0,0-6.171,6.171v1.543A2.572,2.572,0,0,0,9.429,56H24.857a2.572,2.572,0,0,0,2.571-2.571V51.886A6.173,6.173,0,0,0,21.257,45.714ZM9.273,45a3.419,3.419,0,0,0-2.416-1H3.429A3.432,3.432,0,0,0,0,47.429v1.714a1.712,1.712,0,0,0,1.714,1.714h3.53A7.856,7.856,0,0,1,9.273,45Z" transform="translate(0 -32)"/>
</svg>
