<svg xmlns="http://www.w3.org/2000/svg" width="27.75" height="24.281" viewBox="0 0 27.75 24.281">
  <defs>
    <style>
      .cls-1 {
        fill: #fff;
      }
    </style>
  </defs>
  <path id="FontAwsome_comment_" data-name="FontAwsome (comment)" class="cls-1" d="M13.875,32C6.211,32,0,37.046,0,43.273a10.006,10.006,0,0,0,3.089,7.084A13.788,13.788,0,0,1,.119,55.55a.431.431,0,0,0-.081.472.424.424,0,0,0,.4.26A12.4,12.4,0,0,0,8.054,53.5a16.53,16.53,0,0,0,5.821,1.051c7.664,0,13.875-5.046,13.875-11.273S21.539,32,13.875,32Z" transform="translate(0 -32)"/>
</svg>
