<svg xmlns="http://www.w3.org/2000/svg" width="28.5" height="29.771" viewBox="0 0 28.5 29.771">
  <defs>
    <style>
      .cls-1 {
        fill: #fff;
      }
    </style>
  </defs>
  <path id="FontAwsome_cog_" data-name="FontAwsome (cog)" class="cls-1" d="M46.78,26.562l-2.557-1.477a11.562,11.562,0,0,0,0-4.214L46.78,19.4a.725.725,0,0,0,.33-.84,14.949,14.949,0,0,0-3.283-5.678.722.722,0,0,0-.888-.138l-2.557,1.477a11.328,11.328,0,0,0-3.649-2.107V9.162a.719.719,0,0,0-.564-.7,15.089,15.089,0,0,0-6.554,0,.719.719,0,0,0-.564.7v2.953A11.685,11.685,0,0,0,25.4,14.221l-2.551-1.477a.713.713,0,0,0-.888.138,14.859,14.859,0,0,0-3.283,5.678.718.718,0,0,0,.33.84l2.557,1.477a11.562,11.562,0,0,0,0,4.214l-2.557,1.477a.725.725,0,0,0-.33.84,14.949,14.949,0,0,0,3.283,5.678.722.722,0,0,0,.888.138l2.557-1.477a11.328,11.328,0,0,0,3.649,2.107v2.953a.719.719,0,0,0,.564.7,15.089,15.089,0,0,0,6.554,0,.719.719,0,0,0,.564-.7V33.855a11.685,11.685,0,0,0,3.649-2.107l2.557,1.477a.713.713,0,0,0,.888-.138,14.859,14.859,0,0,0,3.283-5.678A.741.741,0,0,0,46.78,26.562ZM32.891,27.781a4.8,4.8,0,1,1,4.8-4.8A4.808,4.808,0,0,1,32.891,27.781Z" transform="translate(-18.644 -8.099)"/>
</svg>
